<mxfile host="app.diagrams.net" modified="2023-10-05T21:24:55.527Z" agent="Mozilla/5.0 (Windows NT 10.0; Win64; x64) AppleWebKit/537.36 (KHTML, like Gecko) Chrome/116.0.0.0 Safari/537.36 OPR/102.0.0.0" version="22.0.3" etag="7byK8myjRR0vdKdGS5s8" type="github">
  <diagram name="Page-1" id="232wqDw1yZIj1dmQltbG">
    <mxGraphModel>
      <root>
        <mxCell id="0" />
        <mxCell id="1" parent="0" />
      </root>
    </mxGraphModel>
  </diagram>
</mxfile>
